<svg xmlns="http://www.w3.org/2000/svg" xml:space="preserve" xmlns:xlink="http://www.w3.org/1999/xlink" style="max-width: 100%;height: auto;" width="999" height="999" viewBox="0 0 999 999">
<rect width="999" height="999" fill="#ffffff" x="0" y="0" />
<g fill="#000000">
<g transform="translate(270,54) scale(4.635)"><rect width="6" height="6"/></g>
<g transform="translate(297,54) scale(4.635)"><rect width="6" height="6"/></g>
<g transform="translate(324,54) scale(4.635)"><rect width="6" height="6"/></g>
<g transform="translate(378,54) scale(4.635)"><rect width="6" height="6"/></g>
<g transform="translate(486,54) scale(4.635)"><rect width="6" height="6"/></g>
<g transform="translate(594,54) scale(4.635)"><rect width="6" height="6"/></g>
<g transform="translate(621,54) scale(4.635)"><rect width="6" height="6"/></g>
<g transform="translate(675,54) scale(4.635)"><rect width="6" height="6"/></g>
<g transform="translate(702,54) scale(4.635)"><rect width="6" height="6"/></g>
<g transform="translate(270,81) scale(4.635)"><rect width="6" height="6"/></g>
<g transform="translate(297,81) scale(4.635)"><rect width="6" height="6"/></g>
<g transform="translate(378,81) scale(4.635)"><rect width="6" height="6"/></g>
<g transform="translate(432,81) scale(4.635)"><rect width="6" height="6"/></g>
<g transform="translate(459,81) scale(4.635)"><rect width="6" height="6"/></g>
<g transform="translate(486,81) scale(4.635)"><rect width="6" height="6"/></g>
<g transform="translate(540,81) scale(4.635)"><rect width="6" height="6"/></g>
<g transform="translate(567,81) scale(4.635)"><rect width="6" height="6"/></g>
<g transform="translate(648,81) scale(4.635)"><rect width="6" height="6"/></g>
<g transform="translate(702,81) scale(4.635)"><rect width="6" height="6"/></g>
<g transform="translate(270,108) scale(4.635)"><rect width="6" height="6"/></g>
<g transform="translate(297,108) scale(4.635)"><rect width="6" height="6"/></g>
<g transform="translate(351,108) scale(4.635)"><rect width="6" height="6"/></g>
<g transform="translate(378,108) scale(4.635)"><rect width="6" height="6"/></g>
<g transform="translate(405,108) scale(4.635)"><rect width="6" height="6"/></g>
<g transform="translate(459,108) scale(4.635)"><rect width="6" height="6"/></g>
<g transform="translate(594,108) scale(4.635)"><rect width="6" height="6"/></g>
<g transform="translate(621,108) scale(4.635)"><rect width="6" height="6"/></g>
<g transform="translate(675,108) scale(4.635)"><rect width="6" height="6"/></g>
<g transform="translate(702,108) scale(4.635)"><rect width="6" height="6"/></g>
<g transform="translate(297,135) scale(4.635)"><rect width="6" height="6"/></g>
<g transform="translate(324,135) scale(4.635)"><rect width="6" height="6"/></g>
<g transform="translate(378,135) scale(4.635)"><rect width="6" height="6"/></g>
<g transform="translate(405,135) scale(4.635)"><rect width="6" height="6"/></g>
<g transform="translate(459,135) scale(4.635)"><rect width="6" height="6"/></g>
<g transform="translate(486,135) scale(4.635)"><rect width="6" height="6"/></g>
<g transform="translate(513,135) scale(4.635)"><rect width="6" height="6"/></g>
<g transform="translate(540,135) scale(4.635)"><rect width="6" height="6"/></g>
<g transform="translate(648,135) scale(4.635)"><rect width="6" height="6"/></g>
<g transform="translate(675,135) scale(4.635)"><rect width="6" height="6"/></g>
<g transform="translate(297,162) scale(4.635)"><rect width="6" height="6"/></g>
<g transform="translate(324,162) scale(4.635)"><rect width="6" height="6"/></g>
<g transform="translate(351,162) scale(4.635)"><rect width="6" height="6"/></g>
<g transform="translate(405,162) scale(4.635)"><rect width="6" height="6"/></g>
<g transform="translate(513,162) scale(4.635)"><rect width="6" height="6"/></g>
<g transform="translate(540,162) scale(4.635)"><rect width="6" height="6"/></g>
<g transform="translate(567,162) scale(4.635)"><rect width="6" height="6"/></g>
<g transform="translate(702,162) scale(4.635)"><rect width="6" height="6"/></g>
<g transform="translate(270,189) scale(4.635)"><rect width="6" height="6"/></g>
<g transform="translate(378,189) scale(4.635)"><rect width="6" height="6"/></g>
<g transform="translate(432,189) scale(4.635)"><rect width="6" height="6"/></g>
<g transform="translate(486,189) scale(4.635)"><rect width="6" height="6"/></g>
<g transform="translate(513,189) scale(4.635)"><rect width="6" height="6"/></g>
<g transform="translate(540,189) scale(4.635)"><rect width="6" height="6"/></g>
<g transform="translate(567,189) scale(4.635)"><rect width="6" height="6"/></g>
<g transform="translate(648,189) scale(4.635)"><rect width="6" height="6"/></g>
<g transform="translate(270,216) scale(4.635)"><rect width="6" height="6"/></g>
<g transform="translate(324,216) scale(4.635)"><rect width="6" height="6"/></g>
<g transform="translate(378,216) scale(4.635)"><rect width="6" height="6"/></g>
<g transform="translate(432,216) scale(4.635)"><rect width="6" height="6"/></g>
<g transform="translate(486,216) scale(4.635)"><rect width="6" height="6"/></g>
<g transform="translate(540,216) scale(4.635)"><rect width="6" height="6"/></g>
<g transform="translate(594,216) scale(4.635)"><rect width="6" height="6"/></g>
<g transform="translate(648,216) scale(4.635)"><rect width="6" height="6"/></g>
<g transform="translate(702,216) scale(4.635)"><rect width="6" height="6"/></g>
<g transform="translate(270,243) scale(4.635)"><rect width="6" height="6"/></g>
<g transform="translate(324,243) scale(4.635)"><rect width="6" height="6"/></g>
<g transform="translate(405,243) scale(4.635)"><rect width="6" height="6"/></g>
<g transform="translate(459,243) scale(4.635)"><rect width="6" height="6"/></g>
<g transform="translate(567,243) scale(4.635)"><rect width="6" height="6"/></g>
<g transform="translate(621,243) scale(4.635)"><rect width="6" height="6"/></g>
<g transform="translate(648,243) scale(4.635)"><rect width="6" height="6"/></g>
<g transform="translate(702,243) scale(4.635)"><rect width="6" height="6"/></g>
<g transform="translate(108,270) scale(4.635)"><rect width="6" height="6"/></g>
<g transform="translate(135,270) scale(4.635)"><rect width="6" height="6"/></g>
<g transform="translate(162,270) scale(4.635)"><rect width="6" height="6"/></g>
<g transform="translate(216,270) scale(4.635)"><rect width="6" height="6"/></g>
<g transform="translate(270,270) scale(4.635)"><rect width="6" height="6"/></g>
<g transform="translate(324,270) scale(4.635)"><rect width="6" height="6"/></g>
<g transform="translate(351,270) scale(4.635)"><rect width="6" height="6"/></g>
<g transform="translate(486,270) scale(4.635)"><rect width="6" height="6"/></g>
<g transform="translate(540,270) scale(4.635)"><rect width="6" height="6"/></g>
<g transform="translate(567,270) scale(4.635)"><rect width="6" height="6"/></g>
<g transform="translate(648,270) scale(4.635)"><rect width="6" height="6"/></g>
<g transform="translate(702,270) scale(4.635)"><rect width="6" height="6"/></g>
<g transform="translate(729,270) scale(4.635)"><rect width="6" height="6"/></g>
<g transform="translate(756,270) scale(4.635)"><rect width="6" height="6"/></g>
<g transform="translate(783,270) scale(4.635)"><rect width="6" height="6"/></g>
<g transform="translate(864,270) scale(4.635)"><rect width="6" height="6"/></g>
<g transform="translate(891,270) scale(4.635)"><rect width="6" height="6"/></g>
<g transform="translate(918,270) scale(4.635)"><rect width="6" height="6"/></g>
<g transform="translate(54,297) scale(4.635)"><rect width="6" height="6"/></g>
<g transform="translate(108,297) scale(4.635)"><rect width="6" height="6"/></g>
<g transform="translate(135,297) scale(4.635)"><rect width="6" height="6"/></g>
<g transform="translate(162,297) scale(4.635)"><rect width="6" height="6"/></g>
<g transform="translate(189,297) scale(4.635)"><rect width="6" height="6"/></g>
<g transform="translate(297,297) scale(4.635)"><rect width="6" height="6"/></g>
<g transform="translate(405,297) scale(4.635)"><rect width="6" height="6"/></g>
<g transform="translate(459,297) scale(4.635)"><rect width="6" height="6"/></g>
<g transform="translate(486,297) scale(4.635)"><rect width="6" height="6"/></g>
<g transform="translate(567,297) scale(4.635)"><rect width="6" height="6"/></g>
<g transform="translate(594,297) scale(4.635)"><rect width="6" height="6"/></g>
<g transform="translate(675,297) scale(4.635)"><rect width="6" height="6"/></g>
<g transform="translate(729,297) scale(4.635)"><rect width="6" height="6"/></g>
<g transform="translate(756,297) scale(4.635)"><rect width="6" height="6"/></g>
<g transform="translate(837,297) scale(4.635)"><rect width="6" height="6"/></g>
<g transform="translate(864,297) scale(4.635)"><rect width="6" height="6"/></g>
<g transform="translate(891,297) scale(4.635)"><rect width="6" height="6"/></g>
<g transform="translate(918,297) scale(4.635)"><rect width="6" height="6"/></g>
<g transform="translate(54,324) scale(4.635)"><rect width="6" height="6"/></g>
<g transform="translate(135,324) scale(4.635)"><rect width="6" height="6"/></g>
<g transform="translate(216,324) scale(4.635)"><rect width="6" height="6"/></g>
<g transform="translate(243,324) scale(4.635)"><rect width="6" height="6"/></g>
<g transform="translate(270,324) scale(4.635)"><rect width="6" height="6"/></g>
<g transform="translate(297,324) scale(4.635)"><rect width="6" height="6"/></g>
<g transform="translate(324,324) scale(4.635)"><rect width="6" height="6"/></g>
<g transform="translate(405,324) scale(4.635)"><rect width="6" height="6"/></g>
<g transform="translate(432,324) scale(4.635)"><rect width="6" height="6"/></g>
<g transform="translate(459,324) scale(4.635)"><rect width="6" height="6"/></g>
<g transform="translate(486,324) scale(4.635)"><rect width="6" height="6"/></g>
<g transform="translate(567,324) scale(4.635)"><rect width="6" height="6"/></g>
<g transform="translate(594,324) scale(4.635)"><rect width="6" height="6"/></g>
<g transform="translate(648,324) scale(4.635)"><rect width="6" height="6"/></g>
<g transform="translate(783,324) scale(4.635)"><rect width="6" height="6"/></g>
<g transform="translate(891,324) scale(4.635)"><rect width="6" height="6"/></g>
<g transform="translate(135,351) scale(4.635)"><rect width="6" height="6"/></g>
<g transform="translate(189,351) scale(4.635)"><rect width="6" height="6"/></g>
<g transform="translate(243,351) scale(4.635)"><rect width="6" height="6"/></g>
<g transform="translate(324,351) scale(4.635)"><rect width="6" height="6"/></g>
<g transform="translate(405,351) scale(4.635)"><rect width="6" height="6"/></g>
<g transform="translate(486,351) scale(4.635)"><rect width="6" height="6"/></g>
<g transform="translate(513,351) scale(4.635)"><rect width="6" height="6"/></g>
<g transform="translate(540,351) scale(4.635)"><rect width="6" height="6"/></g>
<g transform="translate(567,351) scale(4.635)"><rect width="6" height="6"/></g>
<g transform="translate(594,351) scale(4.635)"><rect width="6" height="6"/></g>
<g transform="translate(675,351) scale(4.635)"><rect width="6" height="6"/></g>
<g transform="translate(702,351) scale(4.635)"><rect width="6" height="6"/></g>
<g transform="translate(729,351) scale(4.635)"><rect width="6" height="6"/></g>
<g transform="translate(756,351) scale(4.635)"><rect width="6" height="6"/></g>
<g transform="translate(837,351) scale(4.635)"><rect width="6" height="6"/></g>
<g transform="translate(864,351) scale(4.635)"><rect width="6" height="6"/></g>
<g transform="translate(891,351) scale(4.635)"><rect width="6" height="6"/></g>
<g transform="translate(918,351) scale(4.635)"><rect width="6" height="6"/></g>
<g transform="translate(162,378) scale(4.635)"><rect width="6" height="6"/></g>
<g transform="translate(216,378) scale(4.635)"><rect width="6" height="6"/></g>
<g transform="translate(243,378) scale(4.635)"><rect width="6" height="6"/></g>
<g transform="translate(297,378) scale(4.635)"><rect width="6" height="6"/></g>
<g transform="translate(324,378) scale(4.635)"><rect width="6" height="6"/></g>
<g transform="translate(351,378) scale(4.635)"><rect width="6" height="6"/></g>
<g transform="translate(405,378) scale(4.635)"><rect width="6" height="6"/></g>
<g transform="translate(459,378) scale(4.635)"><rect width="6" height="6"/></g>
<g transform="translate(486,378) scale(4.635)"><rect width="6" height="6"/></g>
<g transform="translate(513,378) scale(4.635)"><rect width="6" height="6"/></g>
<g transform="translate(540,378) scale(4.635)"><rect width="6" height="6"/></g>
<g transform="translate(567,378) scale(4.635)"><rect width="6" height="6"/></g>
<g transform="translate(594,378) scale(4.635)"><rect width="6" height="6"/></g>
<g transform="translate(621,378) scale(4.635)"><rect width="6" height="6"/></g>
<g transform="translate(648,378) scale(4.635)"><rect width="6" height="6"/></g>
<g transform="translate(729,378) scale(4.635)"><rect width="6" height="6"/></g>
<g transform="translate(783,378) scale(4.635)"><rect width="6" height="6"/></g>
<g transform="translate(54,405) scale(4.635)"><rect width="6" height="6"/></g>
<g transform="translate(108,405) scale(4.635)"><rect width="6" height="6"/></g>
<g transform="translate(243,405) scale(4.635)"><rect width="6" height="6"/></g>
<g transform="translate(270,405) scale(4.635)"><rect width="6" height="6"/></g>
<g transform="translate(297,405) scale(4.635)"><rect width="6" height="6"/></g>
<g transform="translate(324,405) scale(4.635)"><rect width="6" height="6"/></g>
<g transform="translate(351,405) scale(4.635)"><rect width="6" height="6"/></g>
<g transform="translate(378,405) scale(4.635)"><rect width="6" height="6"/></g>
<g transform="translate(432,405) scale(4.635)"><rect width="6" height="6"/></g>
<g transform="translate(459,405) scale(4.635)"><rect width="6" height="6"/></g>
<g transform="translate(486,405) scale(4.635)"><rect width="6" height="6"/></g>
<g transform="translate(513,405) scale(4.635)"><rect width="6" height="6"/></g>
<g transform="translate(540,405) scale(4.635)"><rect width="6" height="6"/></g>
<g transform="translate(594,405) scale(4.635)"><rect width="6" height="6"/></g>
<g transform="translate(675,405) scale(4.635)"><rect width="6" height="6"/></g>
<g transform="translate(756,405) scale(4.635)"><rect width="6" height="6"/></g>
<g transform="translate(810,405) scale(4.635)"><rect width="6" height="6"/></g>
<g transform="translate(837,405) scale(4.635)"><rect width="6" height="6"/></g>
<g transform="translate(918,405) scale(4.635)"><rect width="6" height="6"/></g>
<g transform="translate(54,432) scale(4.635)"><rect width="6" height="6"/></g>
<g transform="translate(81,432) scale(4.635)"><rect width="6" height="6"/></g>
<g transform="translate(135,432) scale(4.635)"><rect width="6" height="6"/></g>
<g transform="translate(189,432) scale(4.635)"><rect width="6" height="6"/></g>
<g transform="translate(216,432) scale(4.635)"><rect width="6" height="6"/></g>
<g transform="translate(243,432) scale(4.635)"><rect width="6" height="6"/></g>
<g transform="translate(297,432) scale(4.635)"><rect width="6" height="6"/></g>
<g transform="translate(378,432) scale(4.635)"><rect width="6" height="6"/></g>
<g transform="translate(405,432) scale(4.635)"><rect width="6" height="6"/></g>
<g transform="translate(432,432) scale(4.635)"><rect width="6" height="6"/></g>
<g transform="translate(459,432) scale(4.635)"><rect width="6" height="6"/></g>
<g transform="translate(486,432) scale(4.635)"><rect width="6" height="6"/></g>
<g transform="translate(594,432) scale(4.635)"><rect width="6" height="6"/></g>
<g transform="translate(648,432) scale(4.635)"><rect width="6" height="6"/></g>
<g transform="translate(729,432) scale(4.635)"><rect width="6" height="6"/></g>
<g transform="translate(783,432) scale(4.635)"><rect width="6" height="6"/></g>
<g transform="translate(810,432) scale(4.635)"><rect width="6" height="6"/></g>
<g transform="translate(891,432) scale(4.635)"><rect width="6" height="6"/></g>
<g transform="translate(54,459) scale(4.635)"><rect width="6" height="6"/></g>
<g transform="translate(81,459) scale(4.635)"><rect width="6" height="6"/></g>
<g transform="translate(108,459) scale(4.635)"><rect width="6" height="6"/></g>
<g transform="translate(189,459) scale(4.635)"><rect width="6" height="6"/></g>
<g transform="translate(243,459) scale(4.635)"><rect width="6" height="6"/></g>
<g transform="translate(270,459) scale(4.635)"><rect width="6" height="6"/></g>
<g transform="translate(297,459) scale(4.635)"><rect width="6" height="6"/></g>
<g transform="translate(324,459) scale(4.635)"><rect width="6" height="6"/></g>
<g transform="translate(351,459) scale(4.635)"><rect width="6" height="6"/></g>
<g transform="translate(378,459) scale(4.635)"><rect width="6" height="6"/></g>
<g transform="translate(405,459) scale(4.635)"><rect width="6" height="6"/></g>
<g transform="translate(432,459) scale(4.635)"><rect width="6" height="6"/></g>
<g transform="translate(486,459) scale(4.635)"><rect width="6" height="6"/></g>
<g transform="translate(540,459) scale(4.635)"><rect width="6" height="6"/></g>
<g transform="translate(594,459) scale(4.635)"><rect width="6" height="6"/></g>
<g transform="translate(621,459) scale(4.635)"><rect width="6" height="6"/></g>
<g transform="translate(648,459) scale(4.635)"><rect width="6" height="6"/></g>
<g transform="translate(675,459) scale(4.635)"><rect width="6" height="6"/></g>
<g transform="translate(729,459) scale(4.635)"><rect width="6" height="6"/></g>
<g transform="translate(756,459) scale(4.635)"><rect width="6" height="6"/></g>
<g transform="translate(810,459) scale(4.635)"><rect width="6" height="6"/></g>
<g transform="translate(837,459) scale(4.635)"><rect width="6" height="6"/></g>
<g transform="translate(918,459) scale(4.635)"><rect width="6" height="6"/></g>
<g transform="translate(108,486) scale(4.635)"><rect width="6" height="6"/></g>
<g transform="translate(135,486) scale(4.635)"><rect width="6" height="6"/></g>
<g transform="translate(162,486) scale(4.635)"><rect width="6" height="6"/></g>
<g transform="translate(189,486) scale(4.635)"><rect width="6" height="6"/></g>
<g transform="translate(216,486) scale(4.635)"><rect width="6" height="6"/></g>
<g transform="translate(243,486) scale(4.635)"><rect width="6" height="6"/></g>
<g transform="translate(297,486) scale(4.635)"><rect width="6" height="6"/></g>
<g transform="translate(378,486) scale(4.635)"><rect width="6" height="6"/></g>
<g transform="translate(405,486) scale(4.635)"><rect width="6" height="6"/></g>
<g transform="translate(432,486) scale(4.635)"><rect width="6" height="6"/></g>
<g transform="translate(486,486) scale(4.635)"><rect width="6" height="6"/></g>
<g transform="translate(513,486) scale(4.635)"><rect width="6" height="6"/></g>
<g transform="translate(540,486) scale(4.635)"><rect width="6" height="6"/></g>
<g transform="translate(675,486) scale(4.635)"><rect width="6" height="6"/></g>
<g transform="translate(810,486) scale(4.635)"><rect width="6" height="6"/></g>
<g transform="translate(864,486) scale(4.635)"><rect width="6" height="6"/></g>
<g transform="translate(918,486) scale(4.635)"><rect width="6" height="6"/></g>
<g transform="translate(81,513) scale(4.635)"><rect width="6" height="6"/></g>
<g transform="translate(162,513) scale(4.635)"><rect width="6" height="6"/></g>
<g transform="translate(189,513) scale(4.635)"><rect width="6" height="6"/></g>
<g transform="translate(297,513) scale(4.635)"><rect width="6" height="6"/></g>
<g transform="translate(324,513) scale(4.635)"><rect width="6" height="6"/></g>
<g transform="translate(378,513) scale(4.635)"><rect width="6" height="6"/></g>
<g transform="translate(486,513) scale(4.635)"><rect width="6" height="6"/></g>
<g transform="translate(513,513) scale(4.635)"><rect width="6" height="6"/></g>
<g transform="translate(567,513) scale(4.635)"><rect width="6" height="6"/></g>
<g transform="translate(594,513) scale(4.635)"><rect width="6" height="6"/></g>
<g transform="translate(621,513) scale(4.635)"><rect width="6" height="6"/></g>
<g transform="translate(675,513) scale(4.635)"><rect width="6" height="6"/></g>
<g transform="translate(702,513) scale(4.635)"><rect width="6" height="6"/></g>
<g transform="translate(756,513) scale(4.635)"><rect width="6" height="6"/></g>
<g transform="translate(81,540) scale(4.635)"><rect width="6" height="6"/></g>
<g transform="translate(189,540) scale(4.635)"><rect width="6" height="6"/></g>
<g transform="translate(216,540) scale(4.635)"><rect width="6" height="6"/></g>
<g transform="translate(243,540) scale(4.635)"><rect width="6" height="6"/></g>
<g transform="translate(297,540) scale(4.635)"><rect width="6" height="6"/></g>
<g transform="translate(351,540) scale(4.635)"><rect width="6" height="6"/></g>
<g transform="translate(405,540) scale(4.635)"><rect width="6" height="6"/></g>
<g transform="translate(432,540) scale(4.635)"><rect width="6" height="6"/></g>
<g transform="translate(513,540) scale(4.635)"><rect width="6" height="6"/></g>
<g transform="translate(567,540) scale(4.635)"><rect width="6" height="6"/></g>
<g transform="translate(621,540) scale(4.635)"><rect width="6" height="6"/></g>
<g transform="translate(648,540) scale(4.635)"><rect width="6" height="6"/></g>
<g transform="translate(810,540) scale(4.635)"><rect width="6" height="6"/></g>
<g transform="translate(864,540) scale(4.635)"><rect width="6" height="6"/></g>
<g transform="translate(54,567) scale(4.635)"><rect width="6" height="6"/></g>
<g transform="translate(189,567) scale(4.635)"><rect width="6" height="6"/></g>
<g transform="translate(270,567) scale(4.635)"><rect width="6" height="6"/></g>
<g transform="translate(297,567) scale(4.635)"><rect width="6" height="6"/></g>
<g transform="translate(378,567) scale(4.635)"><rect width="6" height="6"/></g>
<g transform="translate(405,567) scale(4.635)"><rect width="6" height="6"/></g>
<g transform="translate(432,567) scale(4.635)"><rect width="6" height="6"/></g>
<g transform="translate(459,567) scale(4.635)"><rect width="6" height="6"/></g>
<g transform="translate(486,567) scale(4.635)"><rect width="6" height="6"/></g>
<g transform="translate(594,567) scale(4.635)"><rect width="6" height="6"/></g>
<g transform="translate(621,567) scale(4.635)"><rect width="6" height="6"/></g>
<g transform="translate(648,567) scale(4.635)"><rect width="6" height="6"/></g>
<g transform="translate(675,567) scale(4.635)"><rect width="6" height="6"/></g>
<g transform="translate(702,567) scale(4.635)"><rect width="6" height="6"/></g>
<g transform="translate(729,567) scale(4.635)"><rect width="6" height="6"/></g>
<g transform="translate(810,567) scale(4.635)"><rect width="6" height="6"/></g>
<g transform="translate(837,567) scale(4.635)"><rect width="6" height="6"/></g>
<g transform="translate(864,567) scale(4.635)"><rect width="6" height="6"/></g>
<g transform="translate(891,567) scale(4.635)"><rect width="6" height="6"/></g>
<g transform="translate(918,567) scale(4.635)"><rect width="6" height="6"/></g>
<g transform="translate(108,594) scale(4.635)"><rect width="6" height="6"/></g>
<g transform="translate(135,594) scale(4.635)"><rect width="6" height="6"/></g>
<g transform="translate(162,594) scale(4.635)"><rect width="6" height="6"/></g>
<g transform="translate(216,594) scale(4.635)"><rect width="6" height="6"/></g>
<g transform="translate(297,594) scale(4.635)"><rect width="6" height="6"/></g>
<g transform="translate(324,594) scale(4.635)"><rect width="6" height="6"/></g>
<g transform="translate(351,594) scale(4.635)"><rect width="6" height="6"/></g>
<g transform="translate(540,594) scale(4.635)"><rect width="6" height="6"/></g>
<g transform="translate(594,594) scale(4.635)"><rect width="6" height="6"/></g>
<g transform="translate(648,594) scale(4.635)"><rect width="6" height="6"/></g>
<g transform="translate(702,594) scale(4.635)"><rect width="6" height="6"/></g>
<g transform="translate(783,594) scale(4.635)"><rect width="6" height="6"/></g>
<g transform="translate(810,594) scale(4.635)"><rect width="6" height="6"/></g>
<g transform="translate(837,594) scale(4.635)"><rect width="6" height="6"/></g>
<g transform="translate(891,594) scale(4.635)"><rect width="6" height="6"/></g>
<g transform="translate(918,594) scale(4.635)"><rect width="6" height="6"/></g>
<g transform="translate(54,621) scale(4.635)"><rect width="6" height="6"/></g>
<g transform="translate(243,621) scale(4.635)"><rect width="6" height="6"/></g>
<g transform="translate(297,621) scale(4.635)"><rect width="6" height="6"/></g>
<g transform="translate(324,621) scale(4.635)"><rect width="6" height="6"/></g>
<g transform="translate(459,621) scale(4.635)"><rect width="6" height="6"/></g>
<g transform="translate(567,621) scale(4.635)"><rect width="6" height="6"/></g>
<g transform="translate(594,621) scale(4.635)"><rect width="6" height="6"/></g>
<g transform="translate(648,621) scale(4.635)"><rect width="6" height="6"/></g>
<g transform="translate(729,621) scale(4.635)"><rect width="6" height="6"/></g>
<g transform="translate(837,621) scale(4.635)"><rect width="6" height="6"/></g>
<g transform="translate(864,621) scale(4.635)"><rect width="6" height="6"/></g>
<g transform="translate(918,621) scale(4.635)"><rect width="6" height="6"/></g>
<g transform="translate(54,648) scale(4.635)"><rect width="6" height="6"/></g>
<g transform="translate(162,648) scale(4.635)"><rect width="6" height="6"/></g>
<g transform="translate(216,648) scale(4.635)"><rect width="6" height="6"/></g>
<g transform="translate(297,648) scale(4.635)"><rect width="6" height="6"/></g>
<g transform="translate(324,648) scale(4.635)"><rect width="6" height="6"/></g>
<g transform="translate(432,648) scale(4.635)"><rect width="6" height="6"/></g>
<g transform="translate(459,648) scale(4.635)"><rect width="6" height="6"/></g>
<g transform="translate(486,648) scale(4.635)"><rect width="6" height="6"/></g>
<g transform="translate(567,648) scale(4.635)"><rect width="6" height="6"/></g>
<g transform="translate(594,648) scale(4.635)"><rect width="6" height="6"/></g>
<g transform="translate(621,648) scale(4.635)"><rect width="6" height="6"/></g>
<g transform="translate(648,648) scale(4.635)"><rect width="6" height="6"/></g>
<g transform="translate(675,648) scale(4.635)"><rect width="6" height="6"/></g>
<g transform="translate(702,648) scale(4.635)"><rect width="6" height="6"/></g>
<g transform="translate(864,648) scale(4.635)"><rect width="6" height="6"/></g>
<g transform="translate(891,648) scale(4.635)"><rect width="6" height="6"/></g>
<g transform="translate(54,675) scale(4.635)"><rect width="6" height="6"/></g>
<g transform="translate(162,675) scale(4.635)"><rect width="6" height="6"/></g>
<g transform="translate(297,675) scale(4.635)"><rect width="6" height="6"/></g>
<g transform="translate(324,675) scale(4.635)"><rect width="6" height="6"/></g>
<g transform="translate(432,675) scale(4.635)"><rect width="6" height="6"/></g>
<g transform="translate(459,675) scale(4.635)"><rect width="6" height="6"/></g>
<g transform="translate(486,675) scale(4.635)"><rect width="6" height="6"/></g>
<g transform="translate(513,675) scale(4.635)"><rect width="6" height="6"/></g>
<g transform="translate(567,675) scale(4.635)"><rect width="6" height="6"/></g>
<g transform="translate(621,675) scale(4.635)"><rect width="6" height="6"/></g>
<g transform="translate(648,675) scale(4.635)"><rect width="6" height="6"/></g>
<g transform="translate(675,675) scale(4.635)"><rect width="6" height="6"/></g>
<g transform="translate(783,675) scale(4.635)"><rect width="6" height="6"/></g>
<g transform="translate(837,675) scale(4.635)"><rect width="6" height="6"/></g>
<g transform="translate(864,675) scale(4.635)"><rect width="6" height="6"/></g>
<g transform="translate(918,675) scale(4.635)"><rect width="6" height="6"/></g>
<g transform="translate(54,702) scale(4.635)"><rect width="6" height="6"/></g>
<g transform="translate(108,702) scale(4.635)"><rect width="6" height="6"/></g>
<g transform="translate(162,702) scale(4.635)"><rect width="6" height="6"/></g>
<g transform="translate(189,702) scale(4.635)"><rect width="6" height="6"/></g>
<g transform="translate(216,702) scale(4.635)"><rect width="6" height="6"/></g>
<g transform="translate(243,702) scale(4.635)"><rect width="6" height="6"/></g>
<g transform="translate(270,702) scale(4.635)"><rect width="6" height="6"/></g>
<g transform="translate(351,702) scale(4.635)"><rect width="6" height="6"/></g>
<g transform="translate(459,702) scale(4.635)"><rect width="6" height="6"/></g>
<g transform="translate(513,702) scale(4.635)"><rect width="6" height="6"/></g>
<g transform="translate(540,702) scale(4.635)"><rect width="6" height="6"/></g>
<g transform="translate(567,702) scale(4.635)"><rect width="6" height="6"/></g>
<g transform="translate(594,702) scale(4.635)"><rect width="6" height="6"/></g>
<g transform="translate(675,702) scale(4.635)"><rect width="6" height="6"/></g>
<g transform="translate(702,702) scale(4.635)"><rect width="6" height="6"/></g>
<g transform="translate(729,702) scale(4.635)"><rect width="6" height="6"/></g>
<g transform="translate(756,702) scale(4.635)"><rect width="6" height="6"/></g>
<g transform="translate(783,702) scale(4.635)"><rect width="6" height="6"/></g>
<g transform="translate(810,702) scale(4.635)"><rect width="6" height="6"/></g>
<g transform="translate(270,729) scale(4.635)"><rect width="6" height="6"/></g>
<g transform="translate(297,729) scale(4.635)"><rect width="6" height="6"/></g>
<g transform="translate(351,729) scale(4.635)"><rect width="6" height="6"/></g>
<g transform="translate(378,729) scale(4.635)"><rect width="6" height="6"/></g>
<g transform="translate(432,729) scale(4.635)"><rect width="6" height="6"/></g>
<g transform="translate(459,729) scale(4.635)"><rect width="6" height="6"/></g>
<g transform="translate(486,729) scale(4.635)"><rect width="6" height="6"/></g>
<g transform="translate(513,729) scale(4.635)"><rect width="6" height="6"/></g>
<g transform="translate(621,729) scale(4.635)"><rect width="6" height="6"/></g>
<g transform="translate(702,729) scale(4.635)"><rect width="6" height="6"/></g>
<g transform="translate(810,729) scale(4.635)"><rect width="6" height="6"/></g>
<g transform="translate(837,729) scale(4.635)"><rect width="6" height="6"/></g>
<g transform="translate(891,729) scale(4.635)"><rect width="6" height="6"/></g>
<g transform="translate(918,729) scale(4.635)"><rect width="6" height="6"/></g>
<g transform="translate(351,756) scale(4.635)"><rect width="6" height="6"/></g>
<g transform="translate(405,756) scale(4.635)"><rect width="6" height="6"/></g>
<g transform="translate(432,756) scale(4.635)"><rect width="6" height="6"/></g>
<g transform="translate(513,756) scale(4.635)"><rect width="6" height="6"/></g>
<g transform="translate(540,756) scale(4.635)"><rect width="6" height="6"/></g>
<g transform="translate(567,756) scale(4.635)"><rect width="6" height="6"/></g>
<g transform="translate(594,756) scale(4.635)"><rect width="6" height="6"/></g>
<g transform="translate(621,756) scale(4.635)"><rect width="6" height="6"/></g>
<g transform="translate(675,756) scale(4.635)"><rect width="6" height="6"/></g>
<g transform="translate(702,756) scale(4.635)"><rect width="6" height="6"/></g>
<g transform="translate(756,756) scale(4.635)"><rect width="6" height="6"/></g>
<g transform="translate(810,756) scale(4.635)"><rect width="6" height="6"/></g>
<g transform="translate(864,756) scale(4.635)"><rect width="6" height="6"/></g>
<g transform="translate(891,756) scale(4.635)"><rect width="6" height="6"/></g>
<g transform="translate(324,783) scale(4.635)"><rect width="6" height="6"/></g>
<g transform="translate(405,783) scale(4.635)"><rect width="6" height="6"/></g>
<g transform="translate(459,783) scale(4.635)"><rect width="6" height="6"/></g>
<g transform="translate(486,783) scale(4.635)"><rect width="6" height="6"/></g>
<g transform="translate(513,783) scale(4.635)"><rect width="6" height="6"/></g>
<g transform="translate(540,783) scale(4.635)"><rect width="6" height="6"/></g>
<g transform="translate(567,783) scale(4.635)"><rect width="6" height="6"/></g>
<g transform="translate(621,783) scale(4.635)"><rect width="6" height="6"/></g>
<g transform="translate(648,783) scale(4.635)"><rect width="6" height="6"/></g>
<g transform="translate(675,783) scale(4.635)"><rect width="6" height="6"/></g>
<g transform="translate(702,783) scale(4.635)"><rect width="6" height="6"/></g>
<g transform="translate(810,783) scale(4.635)"><rect width="6" height="6"/></g>
<g transform="translate(837,783) scale(4.635)"><rect width="6" height="6"/></g>
<g transform="translate(864,783) scale(4.635)"><rect width="6" height="6"/></g>
<g transform="translate(891,783) scale(4.635)"><rect width="6" height="6"/></g>
<g transform="translate(918,783) scale(4.635)"><rect width="6" height="6"/></g>
<g transform="translate(270,810) scale(4.635)"><rect width="6" height="6"/></g>
<g transform="translate(297,810) scale(4.635)"><rect width="6" height="6"/></g>
<g transform="translate(324,810) scale(4.635)"><rect width="6" height="6"/></g>
<g transform="translate(378,810) scale(4.635)"><rect width="6" height="6"/></g>
<g transform="translate(405,810) scale(4.635)"><rect width="6" height="6"/></g>
<g transform="translate(432,810) scale(4.635)"><rect width="6" height="6"/></g>
<g transform="translate(459,810) scale(4.635)"><rect width="6" height="6"/></g>
<g transform="translate(513,810) scale(4.635)"><rect width="6" height="6"/></g>
<g transform="translate(540,810) scale(4.635)"><rect width="6" height="6"/></g>
<g transform="translate(621,810) scale(4.635)"><rect width="6" height="6"/></g>
<g transform="translate(702,810) scale(4.635)"><rect width="6" height="6"/></g>
<g transform="translate(729,810) scale(4.635)"><rect width="6" height="6"/></g>
<g transform="translate(756,810) scale(4.635)"><rect width="6" height="6"/></g>
<g transform="translate(783,810) scale(4.635)"><rect width="6" height="6"/></g>
<g transform="translate(810,810) scale(4.635)"><rect width="6" height="6"/></g>
<g transform="translate(891,810) scale(4.635)"><rect width="6" height="6"/></g>
<g transform="translate(918,810) scale(4.635)"><rect width="6" height="6"/></g>
<g transform="translate(270,837) scale(4.635)"><rect width="6" height="6"/></g>
<g transform="translate(297,837) scale(4.635)"><rect width="6" height="6"/></g>
<g transform="translate(351,837) scale(4.635)"><rect width="6" height="6"/></g>
<g transform="translate(378,837) scale(4.635)"><rect width="6" height="6"/></g>
<g transform="translate(486,837) scale(4.635)"><rect width="6" height="6"/></g>
<g transform="translate(513,837) scale(4.635)"><rect width="6" height="6"/></g>
<g transform="translate(540,837) scale(4.635)"><rect width="6" height="6"/></g>
<g transform="translate(567,837) scale(4.635)"><rect width="6" height="6"/></g>
<g transform="translate(594,837) scale(4.635)"><rect width="6" height="6"/></g>
<g transform="translate(648,837) scale(4.635)"><rect width="6" height="6"/></g>
<g transform="translate(729,837) scale(4.635)"><rect width="6" height="6"/></g>
<g transform="translate(810,837) scale(4.635)"><rect width="6" height="6"/></g>
<g transform="translate(864,837) scale(4.635)"><rect width="6" height="6"/></g>
<g transform="translate(891,837) scale(4.635)"><rect width="6" height="6"/></g>
<g transform="translate(270,864) scale(4.635)"><rect width="6" height="6"/></g>
<g transform="translate(540,864) scale(4.635)"><rect width="6" height="6"/></g>
<g transform="translate(594,864) scale(4.635)"><rect width="6" height="6"/></g>
<g transform="translate(648,864) scale(4.635)"><rect width="6" height="6"/></g>
<g transform="translate(675,864) scale(4.635)"><rect width="6" height="6"/></g>
<g transform="translate(729,864) scale(4.635)"><rect width="6" height="6"/></g>
<g transform="translate(756,864) scale(4.635)"><rect width="6" height="6"/></g>
<g transform="translate(837,864) scale(4.635)"><rect width="6" height="6"/></g>
<g transform="translate(864,864) scale(4.635)"><rect width="6" height="6"/></g>
<g transform="translate(297,891) scale(4.635)"><rect width="6" height="6"/></g>
<g transform="translate(324,891) scale(4.635)"><rect width="6" height="6"/></g>
<g transform="translate(351,891) scale(4.635)"><rect width="6" height="6"/></g>
<g transform="translate(378,891) scale(4.635)"><rect width="6" height="6"/></g>
<g transform="translate(405,891) scale(4.635)"><rect width="6" height="6"/></g>
<g transform="translate(432,891) scale(4.635)"><rect width="6" height="6"/></g>
<g transform="translate(459,891) scale(4.635)"><rect width="6" height="6"/></g>
<g transform="translate(486,891) scale(4.635)"><rect width="6" height="6"/></g>
<g transform="translate(513,891) scale(4.635)"><rect width="6" height="6"/></g>
<g transform="translate(567,891) scale(4.635)"><rect width="6" height="6"/></g>
<g transform="translate(756,891) scale(4.635)"><rect width="6" height="6"/></g>
<g transform="translate(783,891) scale(4.635)"><rect width="6" height="6"/></g>
<g transform="translate(864,891) scale(4.635)"><rect width="6" height="6"/></g>
<g transform="translate(297,918) scale(4.635)"><rect width="6" height="6"/></g>
<g transform="translate(324,918) scale(4.635)"><rect width="6" height="6"/></g>
<g transform="translate(378,918) scale(4.635)"><rect width="6" height="6"/></g>
<g transform="translate(405,918) scale(4.635)"><rect width="6" height="6"/></g>
<g transform="translate(567,918) scale(4.635)"><rect width="6" height="6"/></g>
<g transform="translate(621,918) scale(4.635)"><rect width="6" height="6"/></g>
<g transform="translate(648,918) scale(4.635)"><rect width="6" height="6"/></g>
<g transform="translate(675,918) scale(4.635)"><rect width="6" height="6"/></g>
<g transform="translate(702,918) scale(4.635)"><rect width="6" height="6"/></g>
<g transform="translate(729,918) scale(4.635)"><rect width="6" height="6"/></g>
<g transform="translate(756,918) scale(4.635)"><rect width="6" height="6"/></g>
<g transform="translate(837,918) scale(4.635)"><rect width="6" height="6"/></g>
<g transform="translate(864,918) scale(4.635)"><rect width="6" height="6"/></g>
<g transform="translate(891,918) scale(4.635)"><rect width="6" height="6"/></g>
</g><g><g transform="translate(54,54)"  fill="#000000"><g transform="scale(13.5)"><path d="M0,0v14h14V0H0z M12,12H2V2h10V12z"/></g></g>
<g transform="translate(756,54)"  fill="#000000"><g transform="scale(13.5)"><path d="M0,0v14h14V0H0z M12,12H2V2h10V12z"/></g></g>
<g transform="translate(54,756)"  fill="#000000"><g transform="scale(13.5)"><path d="M0,0v14h14V0H0z M12,12H2V2h10V12z"/></g></g>
<g transform="translate(108,108)"  fill="#000000"><g transform="scale(13.5)"><rect width="6" height="6"/></g></g>
<g transform="translate(810,108)"  fill="#000000"><g transform="scale(13.5)"><rect width="6" height="6"/></g></g>
<g transform="translate(108,810)"  fill="#000000"><g transform="scale(13.5)"><rect width="6" height="6"/></g></g></g>
</svg>